<svg width="48" height="48" viewBox="0 0 48 48" fill="none" xmlns="http://www.w3.org/2000/svg">
<rect width="48" height="48" rx="24" fill="#2196F3"/>
<path d="M29.6476 12H18.7954C17.6017 12 16.625 12.9767 16.625 14.1704V17.4261H18.7954V15.2556H29.6476V32.6191H18.7954V30.4487H16.625V33.7043C16.625 34.8981 17.6017 35.8748 18.7954 35.8748H29.6476C30.8413 35.8748 31.818 34.8981 31.818 33.7043V14.1704C31.818 12.9767 30.8413 12 29.6476 12Z" fill="white"/>
<g clip-path="url(#clip0_8077_75920)">
<path d="M17.8649 25.932L20.4997 27.5222L19.8005 24.5251L22.1283 22.5085L19.0629 22.2485L17.8649 19.4219L16.6669 22.2485L13.6016 22.5085L15.9294 24.5251L15.2302 27.5222L17.8649 25.932Z" fill="white"/>
</g>
<defs>
<clipPath id="clip0_8077_75920">
<rect width="10.232" height="10.232" fill="white" transform="translate(12.75 18.3555)"/>
</clipPath>
</defs>
</svg>
