<svg width="115" height="19" viewBox="0 0 115 19" fill="none" xmlns="http://www.w3.org/2000/svg">
<path d="M6.60742 12.1934V6.75391C6.60742 6.33724 6.52279 5.97591 6.35352 5.66992C6.19076 5.35742 5.94336 5.11654 5.61133 4.94727C5.2793 4.77799 4.86914 4.69336 4.38086 4.69336C3.92513 4.69336 3.52474 4.77148 3.17969 4.92773C2.84115 5.08398 2.57422 5.28906 2.37891 5.54297C2.1901 5.79688 2.0957 6.07031 2.0957 6.36328H0.289062C0.289062 5.98568 0.386719 5.61133 0.582031 5.24023C0.777344 4.86914 1.05729 4.53385 1.42188 4.23438C1.79297 3.92839 2.23568 3.6875 2.75 3.51172C3.27083 3.32943 3.85026 3.23828 4.48828 3.23828C5.25651 3.23828 5.93359 3.36849 6.51953 3.62891C7.11198 3.88932 7.57422 4.2832 7.90625 4.81055C8.24479 5.33138 8.41406 5.98568 8.41406 6.77344V11.6953C8.41406 12.0469 8.44336 12.4212 8.50195 12.8184C8.56706 13.2155 8.66146 13.5573 8.78516 13.8438V14H6.90039C6.80924 13.7917 6.73763 13.515 6.68555 13.1699C6.63346 12.8184 6.60742 12.4928 6.60742 12.1934ZM6.91992 7.59375L6.93945 8.86328H5.11328C4.59896 8.86328 4.13997 8.9056 3.73633 8.99023C3.33268 9.06836 2.99414 9.1888 2.7207 9.35156C2.44727 9.51432 2.23893 9.7194 2.0957 9.9668C1.95247 10.2077 1.88086 10.4909 1.88086 10.8164C1.88086 11.1484 1.95573 11.4512 2.10547 11.7246C2.25521 11.998 2.47982 12.2161 2.7793 12.3789C3.08529 12.5352 3.45964 12.6133 3.90234 12.6133C4.45573 12.6133 4.94401 12.4961 5.36719 12.2617C5.79036 12.0273 6.12565 11.7409 6.37305 11.4023C6.62695 11.0638 6.76367 10.735 6.7832 10.416L7.55469 11.2852C7.50911 11.5586 7.38542 11.8613 7.18359 12.1934C6.98177 12.5254 6.71159 12.8444 6.37305 13.1504C6.04102 13.4499 5.64388 13.7005 5.18164 13.9023C4.72591 14.0977 4.21159 14.1953 3.63867 14.1953C2.92253 14.1953 2.29427 14.0553 1.75391 13.7754C1.22005 13.4954 0.803385 13.1211 0.503906 12.6523C0.210938 12.1771 0.0644531 11.6465 0.0644531 11.0605C0.0644531 10.4941 0.17513 9.99609 0.396484 9.56641C0.617839 9.13021 0.936849 8.76888 1.35352 8.48242C1.77018 8.18945 2.27148 7.9681 2.85742 7.81836C3.44336 7.66862 4.09766 7.59375 4.82031 7.59375H6.91992ZM13.5625 5.46484V18.0625H11.7461V3.43359H13.4062L13.5625 5.46484ZM20.6816 8.62891V8.83398C20.6816 9.60221 20.5905 10.3151 20.4082 10.9727C20.2259 11.6237 19.959 12.1901 19.6074 12.6719C19.2624 13.1536 18.8359 13.528 18.3281 13.7949C17.8203 14.0618 17.2376 14.1953 16.5801 14.1953C15.9095 14.1953 15.3171 14.0846 14.8027 13.8633C14.2884 13.6419 13.8522 13.3197 13.4941 12.8965C13.1361 12.4733 12.8496 11.9655 12.6348 11.373C12.4264 10.7806 12.2832 10.1133 12.2051 9.37109V8.27734C12.2832 7.49609 12.4297 6.79622 12.6445 6.17773C12.8594 5.55924 13.1426 5.0319 13.4941 4.5957C13.8522 4.15299 14.2852 3.81771 14.793 3.58984C15.3008 3.35547 15.8867 3.23828 16.5508 3.23828C17.2148 3.23828 17.804 3.36849 18.3184 3.62891C18.8327 3.88281 19.2656 4.2474 19.6172 4.72266C19.9688 5.19792 20.2324 5.76758 20.4082 6.43164C20.5905 7.08919 20.6816 7.82161 20.6816 8.62891ZM18.8652 8.83398V8.62891C18.8652 8.10156 18.8099 7.60677 18.6992 7.14453C18.5885 6.67578 18.416 6.26562 18.1816 5.91406C17.9538 5.55599 17.6608 5.27604 17.3027 5.07422C16.9447 4.86589 16.5182 4.76172 16.0234 4.76172C15.5677 4.76172 15.1706 4.83984 14.832 4.99609C14.5 5.15234 14.2168 5.36393 13.9824 5.63086C13.748 5.89128 13.556 6.19076 13.4062 6.5293C13.263 6.86133 13.1556 7.20638 13.084 7.56445V10.0938C13.2142 10.5495 13.3965 10.9792 13.6309 11.3828C13.8652 11.7799 14.1777 12.1022 14.5684 12.3496C14.959 12.5905 15.4505 12.7109 16.043 12.7109C16.5312 12.7109 16.9512 12.61 17.3027 12.4082C17.6608 12.1999 17.9538 11.9167 18.1816 11.5586C18.416 11.2005 18.5885 10.7904 18.6992 10.3281C18.8099 9.85938 18.8652 9.36133 18.8652 8.83398ZM25.293 5.46484V18.0625H23.4766V3.43359H25.1367L25.293 5.46484ZM32.4121 8.62891V8.83398C32.4121 9.60221 32.321 10.3151 32.1387 10.9727C31.9564 11.6237 31.6895 12.1901 31.3379 12.6719C30.9928 13.1536 30.5664 13.528 30.0586 13.7949C29.5508 14.0618 28.9681 14.1953 28.3105 14.1953C27.64 14.1953 27.0475 14.0846 26.5332 13.8633C26.0189 13.6419 25.5827 13.3197 25.2246 12.8965C24.8665 12.4733 24.5801 11.9655 24.3652 11.373C24.1569 10.7806 24.0137 10.1133 23.9355 9.37109V8.27734C24.0137 7.49609 24.1602 6.79622 24.375 6.17773C24.5898 5.55924 24.873 5.0319 25.2246 4.5957C25.5827 4.15299 26.0156 3.81771 26.5234 3.58984C27.0312 3.35547 27.6172 3.23828 28.2812 3.23828C28.9453 3.23828 29.5345 3.36849 30.0488 3.62891C30.5632 3.88281 30.9961 4.2474 31.3477 4.72266C31.6992 5.19792 31.9629 5.76758 32.1387 6.43164C32.321 7.08919 32.4121 7.82161 32.4121 8.62891ZM30.5957 8.83398V8.62891C30.5957 8.10156 30.5404 7.60677 30.4297 7.14453C30.319 6.67578 30.1465 6.26562 29.9121 5.91406C29.6842 5.55599 29.3913 5.27604 29.0332 5.07422C28.6751 4.86589 28.2487 4.76172 27.7539 4.76172C27.2982 4.76172 26.901 4.83984 26.5625 4.99609C26.2305 5.15234 25.9473 5.36393 25.7129 5.63086C25.4785 5.89128 25.2865 6.19076 25.1367 6.5293C24.9935 6.86133 24.8861 7.20638 24.8145 7.56445V10.0938C24.9447 10.5495 25.127 10.9792 25.3613 11.3828C25.5957 11.7799 25.9082 12.1022 26.2988 12.3496C26.6895 12.5905 27.181 12.7109 27.7734 12.7109C28.2617 12.7109 28.6816 12.61 29.0332 12.4082C29.3913 12.1999 29.6842 11.9167 29.9121 11.5586C30.1465 11.2005 30.319 10.7904 30.4297 10.3281C30.5404 9.85938 30.5957 9.36133 30.5957 8.83398ZM41.3691 11.1973C41.3691 10.9368 41.3105 10.696 41.1934 10.4746C41.0827 10.2467 40.8516 10.0417 40.5 9.85938C40.1549 9.67057 39.6341 9.50781 38.9375 9.37109C38.3516 9.2474 37.821 9.10091 37.3457 8.93164C36.877 8.76237 36.4766 8.55729 36.1445 8.31641C35.819 8.07552 35.5684 7.79232 35.3926 7.4668C35.2168 7.14128 35.1289 6.76042 35.1289 6.32422C35.1289 5.90755 35.2201 5.51367 35.4023 5.14258C35.5911 4.77148 35.8548 4.44271 36.1934 4.15625C36.5384 3.86979 36.9518 3.64518 37.4336 3.48242C37.9154 3.31966 38.4525 3.23828 39.0449 3.23828C39.8913 3.23828 40.6139 3.38802 41.2129 3.6875C41.8118 3.98698 42.2708 4.38737 42.5898 4.88867C42.9089 5.38346 43.0684 5.93359 43.0684 6.53906H41.2617C41.2617 6.24609 41.1738 5.96289 40.998 5.68945C40.8288 5.40951 40.5781 5.17839 40.2461 4.99609C39.9206 4.8138 39.5202 4.72266 39.0449 4.72266C38.5436 4.72266 38.1367 4.80078 37.8242 4.95703C37.5182 5.10677 37.2936 5.29883 37.1504 5.5332C37.0137 5.76758 36.9453 6.01497 36.9453 6.27539C36.9453 6.4707 36.9779 6.64648 37.043 6.80273C37.1146 6.95247 37.2383 7.09245 37.4141 7.22266C37.5898 7.34635 37.8372 7.46354 38.1562 7.57422C38.4753 7.6849 38.8822 7.79557 39.377 7.90625C40.2428 8.10156 40.9557 8.33594 41.5156 8.60938C42.0755 8.88281 42.4922 9.2181 42.7656 9.61523C43.0391 10.0124 43.1758 10.4941 43.1758 11.0605C43.1758 11.5228 43.0781 11.946 42.8828 12.3301C42.694 12.7142 42.4173 13.0462 42.0527 13.3262C41.6947 13.5996 41.265 13.8145 40.7637 13.9707C40.2689 14.1204 39.7122 14.1953 39.0938 14.1953C38.1628 14.1953 37.375 14.0293 36.7305 13.6973C36.0859 13.3652 35.5977 12.9355 35.2656 12.4082C34.9336 11.8809 34.7676 11.3242 34.7676 10.7383H36.584C36.61 11.2331 36.7533 11.627 37.0137 11.9199C37.2741 12.2064 37.5931 12.4115 37.9707 12.5352C38.3483 12.6523 38.7227 12.7109 39.0938 12.7109C39.5885 12.7109 40.002 12.6458 40.334 12.5156C40.6725 12.3854 40.9297 12.2064 41.1055 11.9785C41.2812 11.7507 41.3691 11.4902 41.3691 11.1973ZM50.4727 3.43359V4.82031H44.7598V3.43359H50.4727ZM46.6934 0.865234H48.5V11.3828C48.5 11.7409 48.5553 12.0111 48.666 12.1934C48.7767 12.3757 48.9199 12.4961 49.0957 12.5547C49.2715 12.6133 49.4603 12.6426 49.6621 12.6426C49.8118 12.6426 49.9681 12.6296 50.1309 12.6035C50.3001 12.571 50.4271 12.5449 50.5117 12.5254L50.5215 14C50.3783 14.0456 50.1895 14.0879 49.9551 14.127C49.7272 14.1725 49.4505 14.1953 49.125 14.1953C48.6823 14.1953 48.2754 14.1074 47.9043 13.9316C47.5332 13.7559 47.237 13.4629 47.0156 13.0527C46.8008 12.6361 46.6934 12.0762 46.6934 11.373V0.865234ZM52.418 8.83398V8.60938C52.418 7.84766 52.5286 7.14128 52.75 6.49023C52.9714 5.83268 53.2904 5.26302 53.707 4.78125C54.1237 4.29297 54.6283 3.91536 55.2207 3.64844C55.8132 3.375 56.4772 3.23828 57.2129 3.23828C57.9551 3.23828 58.6224 3.375 59.2148 3.64844C59.8138 3.91536 60.3216 4.29297 60.7383 4.78125C61.1615 5.26302 61.4837 5.83268 61.7051 6.49023C61.9264 7.14128 62.0371 7.84766 62.0371 8.60938V8.83398C62.0371 9.5957 61.9264 10.3021 61.7051 10.9531C61.4837 11.6042 61.1615 12.1738 60.7383 12.6621C60.3216 13.1439 59.8171 13.5215 59.2246 13.7949C58.6387 14.0618 57.9746 14.1953 57.2324 14.1953C56.4902 14.1953 55.8229 14.0618 55.2305 13.7949C54.638 13.5215 54.1302 13.1439 53.707 12.6621C53.2904 12.1738 52.9714 11.6042 52.75 10.9531C52.5286 10.3021 52.418 9.5957 52.418 8.83398ZM54.2246 8.60938V8.83398C54.2246 9.36133 54.2865 9.85938 54.4102 10.3281C54.5339 10.7904 54.7194 11.2005 54.9668 11.5586C55.2207 11.9167 55.5365 12.1999 55.9141 12.4082C56.2917 12.61 56.7311 12.7109 57.2324 12.7109C57.7272 12.7109 58.1602 12.61 58.5312 12.4082C58.9089 12.1999 59.2214 11.9167 59.4688 11.5586C59.7161 11.2005 59.9017 10.7904 60.0254 10.3281C60.1556 9.85938 60.2207 9.36133 60.2207 8.83398V8.60938C60.2207 8.08854 60.1556 7.59701 60.0254 7.13477C59.9017 6.66602 59.7129 6.2526 59.459 5.89453C59.2116 5.52995 58.8991 5.24349 58.5215 5.03516C58.1504 4.82682 57.7142 4.72266 57.2129 4.72266C56.7181 4.72266 56.2819 4.82682 55.9043 5.03516C55.5332 5.24349 55.2207 5.52995 54.9668 5.89453C54.7194 6.2526 54.5339 6.66602 54.4102 7.13477C54.2865 7.59701 54.2246 8.08854 54.2246 8.60938ZM66.6094 5.09375V14H64.8027V3.43359H66.5605L66.6094 5.09375ZM69.9102 3.375L69.9004 5.05469C69.7507 5.02214 69.6074 5.0026 69.4707 4.99609C69.3405 4.98307 69.1908 4.97656 69.0215 4.97656C68.6048 4.97656 68.237 5.04167 67.918 5.17188C67.599 5.30208 67.3288 5.48438 67.1074 5.71875C66.8861 5.95312 66.7103 6.23307 66.5801 6.55859C66.4564 6.8776 66.375 7.22917 66.3359 7.61328L65.8281 7.90625C65.8281 7.26823 65.89 6.66927 66.0137 6.10938C66.1439 5.54948 66.3424 5.05469 66.6094 4.625C66.8763 4.1888 67.2148 3.85026 67.625 3.60938C68.0417 3.36198 68.5365 3.23828 69.1094 3.23828C69.2396 3.23828 69.3893 3.25456 69.5586 3.28711C69.7279 3.31315 69.8451 3.34245 69.9102 3.375ZM76.2695 14.1953C75.5339 14.1953 74.8665 14.0716 74.2676 13.8242C73.6751 13.5703 73.1641 13.2155 72.7344 12.7598C72.3112 12.304 71.9857 11.7637 71.7578 11.1387C71.5299 10.5137 71.416 9.83008 71.416 9.08789V8.67773C71.416 7.81836 71.543 7.05339 71.7969 6.38281C72.0508 5.70573 72.3958 5.13281 72.832 4.66406C73.2682 4.19531 73.763 3.84049 74.3164 3.59961C74.8698 3.35872 75.4427 3.23828 76.0352 3.23828C76.7904 3.23828 77.4414 3.36849 77.9883 3.62891C78.5417 3.88932 78.9941 4.25391 79.3457 4.72266C79.6973 5.1849 79.9577 5.73177 80.127 6.36328C80.2962 6.98828 80.3809 7.67188 80.3809 8.41406V9.22461H72.4902V7.75H78.5742V7.61328C78.5482 7.14453 78.4505 6.6888 78.2812 6.24609C78.1185 5.80339 77.8581 5.4388 77.5 5.15234C77.1419 4.86589 76.6536 4.72266 76.0352 4.72266C75.625 4.72266 75.2474 4.81055 74.9023 4.98633C74.5573 5.1556 74.2611 5.40951 74.0137 5.74805C73.7663 6.08659 73.5742 6.5 73.4375 6.98828C73.3008 7.47656 73.2324 8.03971 73.2324 8.67773V9.08789C73.2324 9.58919 73.3008 10.0612 73.4375 10.5039C73.5807 10.9401 73.7858 11.3242 74.0527 11.6562C74.3262 11.9883 74.6549 12.2487 75.0391 12.4375C75.4297 12.6263 75.8724 12.7207 76.3672 12.7207C77.0052 12.7207 77.5456 12.5905 77.9883 12.3301C78.431 12.0697 78.8184 11.7214 79.1504 11.2852L80.2441 12.1543C80.0163 12.4993 79.7266 12.8281 79.375 13.1406C79.0234 13.4531 78.5905 13.707 78.0762 13.9023C77.5684 14.0977 76.9661 14.1953 76.2695 14.1953ZM88.4199 11.0801C88.4199 10.8783 88.3613 10.696 88.2441 10.5332C88.127 10.3704 87.9089 10.2207 87.5898 10.084C87.2773 9.94076 86.8249 9.81055 86.2324 9.69336C85.6986 9.57617 85.2005 9.42969 84.7383 9.25391C84.2826 9.07161 83.8854 8.85352 83.5469 8.59961C83.2148 8.3457 82.9544 8.04622 82.7656 7.70117C82.5768 7.34961 82.4824 6.94922 82.4824 6.5C82.4824 6.05729 82.5768 5.64062 82.7656 5.25C82.9609 4.85938 83.2376 4.51432 83.5957 4.21484C83.9603 3.90885 84.403 3.67122 84.9238 3.50195C85.4512 3.32617 86.0436 3.23828 86.7012 3.23828C87.6191 3.23828 88.4069 3.38477 89.0645 3.67773C89.7285 3.9707 90.2363 4.37435 90.5879 4.88867C90.946 5.39648 91.125 5.97591 91.125 6.62695H88.3125C88.3125 6.35352 88.2539 6.10938 88.1367 5.89453C88.026 5.67318 87.8503 5.50065 87.6094 5.37695C87.375 5.24674 87.069 5.18164 86.6914 5.18164C86.3789 5.18164 86.1087 5.23698 85.8809 5.34766C85.653 5.45182 85.4772 5.59505 85.3535 5.77734C85.2363 5.95312 85.1777 6.14844 85.1777 6.36328C85.1777 6.52604 85.2103 6.67253 85.2754 6.80273C85.347 6.92643 85.4609 7.04036 85.6172 7.14453C85.7734 7.2487 85.9753 7.34635 86.2227 7.4375C86.4766 7.52214 86.7891 7.60026 87.1602 7.67188C87.9219 7.82812 88.6022 8.0332 89.2012 8.28711C89.8001 8.53451 90.2754 8.87305 90.627 9.30273C90.9785 9.72591 91.1543 10.2826 91.1543 10.9727C91.1543 11.4414 91.0501 11.8711 90.8418 12.2617C90.6335 12.6523 90.334 12.9941 89.9434 13.2871C89.5527 13.5736 89.084 13.7982 88.5371 13.9609C87.9967 14.1172 87.388 14.1953 86.7109 14.1953C85.7279 14.1953 84.8945 14.0195 84.2109 13.668C83.5339 13.3164 83.0195 12.8704 82.668 12.3301C82.3229 11.7832 82.1504 11.2233 82.1504 10.6504H84.8164C84.8294 11.0345 84.9271 11.3438 85.1094 11.5781C85.2982 11.8125 85.5358 11.9818 85.8223 12.0859C86.1152 12.1901 86.431 12.2422 86.7695 12.2422C87.1341 12.2422 87.4368 12.1934 87.6777 12.0957C87.9186 11.9915 88.1009 11.8548 88.2246 11.6855C88.3548 11.5098 88.4199 11.3079 88.4199 11.0801ZM96.293 5.46484V18.0625H93.4805V3.43359H96.0879L96.293 5.46484ZM102.982 8.59961V8.80469C102.982 9.57292 102.891 10.2858 102.709 10.9434C102.533 11.6009 102.273 12.1738 101.928 12.6621C101.583 13.1439 101.153 13.5215 100.639 13.7949C100.131 14.0618 99.5449 14.1953 98.8809 14.1953C98.2363 14.1953 97.6764 14.0651 97.2012 13.8047C96.7259 13.5443 96.3255 13.1797 96 12.7109C95.681 12.2357 95.4238 11.6855 95.2285 11.0605C95.0332 10.4355 94.8835 9.76497 94.7793 9.04883V8.51172C94.8835 7.74349 95.0332 7.04036 95.2285 6.40234C95.4238 5.75781 95.681 5.20117 96 4.73242C96.3255 4.25716 96.7227 3.88932 97.1914 3.62891C97.6667 3.36849 98.2233 3.23828 98.8613 3.23828C99.5319 3.23828 100.121 3.36523 100.629 3.61914C101.143 3.87305 101.573 4.23763 101.918 4.71289C102.27 5.18815 102.533 5.75456 102.709 6.41211C102.891 7.06966 102.982 7.79883 102.982 8.59961ZM100.16 8.80469V8.59961C100.16 8.15039 100.121 7.73698 100.043 7.35938C99.9714 6.97526 99.8542 6.63997 99.6914 6.35352C99.5352 6.06706 99.3268 5.8457 99.0664 5.68945C98.8125 5.52669 98.5033 5.44531 98.1387 5.44531C97.7546 5.44531 97.4258 5.50716 97.1523 5.63086C96.8854 5.75456 96.6673 5.93359 96.498 6.16797C96.3288 6.40234 96.2018 6.68229 96.1172 7.00781C96.0326 7.33333 95.9805 7.70117 95.9609 8.11133V9.46875C95.9935 9.95052 96.0846 10.3835 96.2344 10.7676C96.3841 11.1452 96.6152 11.4447 96.9277 11.666C97.2402 11.8874 97.6504 11.998 98.1582 11.998C98.5293 11.998 98.8418 11.9167 99.0957 11.7539C99.3496 11.5846 99.5547 11.3535 99.7109 11.0605C99.8737 10.7676 99.9876 10.429 100.053 10.0449C100.124 9.66081 100.16 9.2474 100.16 8.80469ZM108.248 12.8086L111.051 3.43359H114.068L109.82 15.5918C109.729 15.8587 109.605 16.1452 109.449 16.4512C109.299 16.7572 109.094 17.0469 108.834 17.3203C108.58 17.6003 108.258 17.8281 107.867 18.0039C107.483 18.1797 107.011 18.2676 106.451 18.2676C106.184 18.2676 105.966 18.2513 105.797 18.2188C105.628 18.1862 105.426 18.1406 105.191 18.082V16.0215C105.263 16.0215 105.338 16.0215 105.416 16.0215C105.494 16.028 105.569 16.0312 105.641 16.0312C106.012 16.0312 106.314 15.9889 106.549 15.9043C106.783 15.8197 106.972 15.6895 107.115 15.5137C107.258 15.3444 107.372 15.123 107.457 14.8496L108.248 12.8086ZM107.076 3.43359L109.371 11.0898L109.771 14.0684L107.857 14.2734L104.059 3.43359H107.076Z" fill="#2196F3"/>
</svg>
