<svg width="115" height="19" fill="none" xmlns="http://www.w3.org/2000/svg"><path d="M6.607 12.193v-5.44c0-.416-.084-.777-.253-1.083a1.662 1.662 0 0 0-.743-.723c-.332-.169-.742-.254-1.23-.254-.456 0-.856.078-1.201.235a2.091 2.091 0 0 0-.801.615 1.348 1.348 0 0 0-.283.82H.289c0-.377.098-.752.293-1.123.195-.37.475-.706.84-1.006a4.198 4.198 0 0 1 1.328-.722c.52-.183 1.1-.274 1.738-.274.769 0 1.446.13 2.032.39.592.261 1.054.655 1.386 1.183.339.52.508 1.175.508 1.962v4.922c0 .352.03.726.088 1.123.065.398.16.74.283 1.026V14H6.9a3.374 3.374 0 0 1-.214-.83 6.693 6.693 0 0 1-.079-.977Zm.313-4.6.02 1.27H5.112c-.514 0-.973.043-1.377.127a3.15 3.15 0 0 0-1.015.362 1.718 1.718 0 0 0-.625.615c-.144.24-.215.524-.215.85 0 .331.075.634.224.908.15.273.375.491.674.654.306.156.68.234 1.123.234.554 0 1.042-.117 1.465-.351.423-.235.759-.521 1.006-.86.254-.338.39-.667.41-.986l.772.87c-.046.273-.17.575-.371.907a4.374 4.374 0 0 1-2.002 1.709 3.88 3.88 0 0 1-1.543.293c-.716 0-1.345-.14-1.885-.42a3.223 3.223 0 0 1-1.25-1.123 2.972 2.972 0 0 1-.44-1.591c0-.567.111-1.065.332-1.495.222-.436.54-.797.958-1.084.416-.293.917-.514 1.503-.664a7.934 7.934 0 0 1 1.963-.224h2.1Zm6.643-2.128v12.598h-1.817V3.432h1.66l.156 2.032Zm7.119 3.164v.205c0 .768-.091 1.481-.274 2.139a5.258 5.258 0 0 1-.8 1.699 3.643 3.643 0 0 1-1.28 1.123c-.508.267-1.09.4-1.748.4-.67 0-1.263-.11-1.777-.332a3.506 3.506 0 0 1-1.309-.966 4.939 4.939 0 0 1-.86-1.524 8.811 8.811 0 0 1-.429-2.002V8.277a9.189 9.189 0 0 1 .44-2.1 5.233 5.233 0 0 1 .85-1.581 3.489 3.489 0 0 1 1.298-1.006c.508-.235 1.094-.352 1.758-.352.664 0 1.253.13 1.767.39.515.255.948.62 1.3 1.095.35.475.614 1.045.79 1.709.182.657.274 1.39.274 2.197Zm-1.817.205v-.205a6.36 6.36 0 0 0-.166-1.484 3.75 3.75 0 0 0-.517-1.23 2.465 2.465 0 0 0-.88-.84c-.357-.21-.784-.313-1.279-.313-.455 0-.852.078-1.191.234a2.576 2.576 0 0 0-.85.635 3.37 3.37 0 0 0-.576.898c-.143.332-.25.677-.322 1.035v2.53c.13.456.313.885.547 1.289.234.397.547.72.937.967.391.24.883.36 1.475.36.488 0 .908-.1 1.26-.302a2.55 2.55 0 0 0 .879-.85c.234-.357.407-.768.517-1.23.11-.469.166-.967.166-1.494Zm6.428-3.37v12.599h-1.816V3.432h1.66l.156 2.032Zm7.12 3.165v.205c0 .768-.092 1.481-.274 2.139a5.258 5.258 0 0 1-.801 1.699 3.644 3.644 0 0 1-1.28 1.123c-.507.267-1.09.4-1.747.4-.671 0-1.264-.11-1.778-.332a3.506 3.506 0 0 1-1.308-.966 4.94 4.94 0 0 1-.86-1.524 8.822 8.822 0 0 1-.43-2.002V8.277a9.194 9.194 0 0 1 .44-2.1 5.23 5.23 0 0 1 .85-1.581 3.489 3.489 0 0 1 1.298-1.006c.508-.235 1.094-.352 1.758-.352.664 0 1.254.13 1.768.39.514.255.947.62 1.299 1.095.351.475.615 1.045.79 1.709.183.657.274 1.39.274 2.197Zm-1.817.205v-.205a6.36 6.36 0 0 0-.166-1.484 3.75 3.75 0 0 0-.518-1.23 2.465 2.465 0 0 0-.879-.84c-.358-.21-.784-.313-1.28-.313-.455 0-.852.078-1.19.234a2.576 2.576 0 0 0-.85.635 3.37 3.37 0 0 0-.576.898c-.143.332-.25.677-.323 1.035v2.53c.13.456.313.885.547 1.289.235.397.547.72.938.967.39.24.882.36 1.474.36.489 0 .909-.1 1.26-.302a2.55 2.55 0 0 0 .88-.85c.233-.357.406-.768.517-1.23.11-.469.166-.967.166-1.494Zm10.773 2.363c0-.26-.059-.501-.176-.722-.11-.228-.341-.433-.693-.616-.345-.188-.866-.351-1.563-.488a12.38 12.38 0 0 1-1.591-.44 4.83 4.83 0 0 1-1.201-.615 2.581 2.581 0 0 1-.752-.85c-.176-.325-.264-.706-.264-1.142 0-.416.091-.81.273-1.181.19-.372.453-.7.791-.987a3.845 3.845 0 0 1 1.24-.674 5.014 5.014 0 0 1 1.612-.244c.846 0 1.569.15 2.168.45.599.299 1.058.7 1.377 1.2.319.495.478 1.046.478 1.651h-1.806a1.55 1.55 0 0 0-.264-.85c-.17-.28-.42-.51-.752-.693-.325-.182-.726-.273-1.201-.273-.501 0-.908.078-1.22.234-.307.15-.531.342-.675.576a1.45 1.45 0 0 0-.205.742c0 .196.033.371.098.528.072.15.195.29.371.42.176.123.423.24.742.351.32.11.726.222 1.221.332.866.196 1.579.43 2.139.703.56.274.976.61 1.25 1.006.273.397.41.88.41 1.445 0 .463-.098.886-.293 1.27a2.815 2.815 0 0 1-.83.996 4.124 4.124 0 0 1-1.29.645 5.76 5.76 0 0 1-1.67.224c-.93 0-1.718-.166-2.363-.498-.644-.332-1.132-.761-1.464-1.289a3.084 3.084 0 0 1-.498-1.67h1.816c.026.495.17.889.43 1.182.26.286.58.492.957.615.377.117.752.176 1.123.176.495 0 .908-.065 1.24-.195.338-.13.596-.31.771-.537.176-.228.264-.489.264-.782Zm9.104-7.763V4.82H44.76V3.434h5.713ZM46.693.865H48.5v10.518c0 .358.055.628.166.81.11.183.254.303.43.362.176.058.364.088.566.088.15 0 .306-.013.469-.04.17-.032.296-.058.38-.078l.01 1.475a4.221 4.221 0 0 1-.566.127 4.314 4.314 0 0 1-.83.068c-.443 0-.85-.088-1.22-.263-.372-.176-.668-.47-.89-.88-.214-.416-.322-.976-.322-1.679V.865Zm5.725 7.969v-.225c0-.761.11-1.468.332-2.119.221-.657.54-1.227.957-1.709a4.27 4.27 0 0 1 1.514-1.133c.592-.273 1.256-.41 1.992-.41.742 0 1.41.137 2.002.41a4.248 4.248 0 0 1 1.523 1.133c.423.482.746 1.052.967 1.71.221.65.332 1.357.332 2.118v.225c0 .762-.11 1.468-.332 2.12a5.07 5.07 0 0 1-.967 1.708c-.416.482-.92.86-1.513 1.133-.586.267-1.25.4-1.993.4-.742 0-1.41-.133-2.002-.4a4.529 4.529 0 0 1-1.523-1.133 5.164 5.164 0 0 1-.957-1.709 6.542 6.542 0 0 1-.332-2.119Zm1.807-.225v.225c0 .527.061 1.025.185 1.494.124.462.31.873.557 1.23.254.359.57.642.947.85.378.202.817.303 1.318.303.495 0 .928-.101 1.3-.303.377-.208.69-.491.937-.85.247-.357.433-.768.556-1.23a5.56 5.56 0 0 0 .196-1.494v-.225c0-.52-.065-1.012-.196-1.474a3.797 3.797 0 0 0-.566-1.24 2.692 2.692 0 0 0-.938-.86c-.37-.208-.807-.312-1.308-.312-.495 0-.931.104-1.309.312a2.81 2.81 0 0 0-.937.86 3.921 3.921 0 0 0-.557 1.24 5.684 5.684 0 0 0-.185 1.474Zm12.384-3.515V14h-1.806V3.434h1.758l.048 1.66Zm3.301-1.719-.01 1.68a2.61 2.61 0 0 0-.43-.059c-.13-.013-.28-.02-.448-.02-.417 0-.785.066-1.104.196-.319.13-.59.312-.81.547a2.632 2.632 0 0 0-.528.84c-.124.319-.205.67-.244 1.054l-.508.293c0-.638.062-1.237.186-1.797.13-.56.328-1.054.595-1.484a2.916 2.916 0 0 1 1.016-1.016c.417-.247.912-.37 1.484-.37.13 0 .28.016.45.048.169.026.286.055.351.088Zm6.36 10.82c-.736 0-1.403-.123-2.002-.37a4.538 4.538 0 0 1-1.534-1.065 4.736 4.736 0 0 1-.976-1.621 5.945 5.945 0 0 1-.342-2.051v-.41c0-.86.127-1.625.38-2.295.255-.677.6-1.25 1.036-1.719A4.434 4.434 0 0 1 74.316 3.6a4.264 4.264 0 0 1 1.72-.362c.754 0 1.405.13 1.952.39a3.56 3.56 0 0 1 1.358 1.095c.351.462.612 1.009.781 1.64.17.625.254 1.309.254 2.051v.81h-7.89V7.75h6.083v-.137a4.504 4.504 0 0 0-.293-1.367 2.457 2.457 0 0 0-.781-1.094c-.358-.286-.846-.43-1.465-.43a2.46 2.46 0 0 0-2.021 1.026c-.248.339-.44.752-.576 1.24-.137.489-.206 1.052-.206 1.69v.41c0 .501.069.973.206 1.416.143.436.348.82.615 1.152.273.332.602.593.986.781.39.19.833.284 1.328.284.638 0 1.179-.13 1.621-.39.443-.261.83-.61 1.162-1.046l1.094.87a5.053 5.053 0 0 1-.869.986 4.148 4.148 0 0 1-1.299.761c-.508.196-1.11.293-1.806.293Zm12.15-3.115a.914.914 0 0 0-.176-.547c-.117-.163-.335-.312-.654-.449-.313-.143-.765-.273-1.358-.39a10.588 10.588 0 0 1-1.494-.44 5.182 5.182 0 0 1-1.191-.654 2.845 2.845 0 0 1-.781-.899 2.499 2.499 0 0 1-.284-1.201c0-.443.095-.86.284-1.25.195-.39.472-.736.83-1.035a3.929 3.929 0 0 1 1.328-.713 5.603 5.603 0 0 1 1.777-.264c.918 0 1.706.147 2.364.44.663.293 1.171.696 1.523 1.21.358.508.537 1.088.537 1.739h-2.813c0-.273-.058-.518-.175-.732a1.16 1.16 0 0 0-.528-.518c-.234-.13-.54-.195-.918-.195-.312 0-.582.055-.81.166a1.243 1.243 0 0 0-.528.43 1.033 1.033 0 0 0-.175.585c0 .163.032.31.097.44.072.123.186.237.342.342.156.104.358.201.606.293.254.084.566.162.937.234.762.156 1.442.361 2.041.615.6.248 1.074.586 1.426 1.016.352.423.527.98.527 1.67 0 .468-.104.898-.312 1.289-.209.39-.508.732-.899 1.025a4.55 4.55 0 0 1-1.406.674c-.54.156-1.149.234-1.826.234-.983 0-1.817-.175-2.5-.527-.677-.352-1.192-.798-1.543-1.338-.345-.547-.518-1.107-.518-1.68h2.666c.013.384.111.694.293.928.19.235.427.404.713.508.293.104.609.156.947.156.365 0 .668-.049.909-.146.24-.104.423-.241.547-.41a.99.99 0 0 0 .195-.606Zm7.873-5.615v12.598H93.48V3.432h2.608l.205 2.032Zm6.689 3.135v.205c0 .768-.091 1.48-.273 2.138a5.343 5.343 0 0 1-.781 1.72c-.345.48-.775.858-1.289 1.132-.508.267-1.094.4-1.758.4-.645 0-1.205-.13-1.68-.39A3.498 3.498 0 0 1 96 12.71a6.33 6.33 0 0 1-.772-1.65 13.032 13.032 0 0 1-.449-2.012v-.537c.105-.769.254-1.472.45-2.11A6.087 6.087 0 0 1 96 4.732a3.495 3.495 0 0 1 1.191-1.103c.476-.26 1.032-.39 1.67-.39.67 0 1.26.126 1.768.38.514.254.944.619 1.289 1.094.352.475.615 1.042.791 1.7.182.657.273 1.386.273 2.187Zm-2.822.205V8.6c0-.45-.039-.863-.117-1.24a3.215 3.215 0 0 0-.352-1.006 1.71 1.71 0 0 0-.625-.665c-.254-.162-.563-.244-.927-.244-.384 0-.713.062-.987.186a1.647 1.647 0 0 0-.654.537 2.49 2.49 0 0 0-.38.84 5.433 5.433 0 0 0-.157 1.103V9.47c.032.482.124.915.273 1.299.15.377.381.677.694.898.312.221.722.332 1.23.332.371 0 .684-.081.938-.244.254-.17.459-.4.615-.694.163-.292.277-.631.342-1.015.071-.384.107-.798.107-1.24Zm8.088 4.004 2.803-9.375h3.017l-4.248 12.158a6.603 6.603 0 0 1-.371.86c-.15.305-.355.595-.615.868-.254.28-.576.508-.967.684-.384.176-.856.264-1.416.264-.267 0-.485-.017-.654-.05a11.798 11.798 0 0 1-.606-.136v-2.06h.225c.078.006.153.01.225.01.371 0 .673-.043.908-.128.234-.084.423-.214.566-.39.143-.17.257-.391.342-.664l.791-2.041Zm-1.172-9.375 2.295 7.656.4 2.978-1.914.205-3.798-10.84h3.017Z" fill="#2196F3"/></svg>