<svg width="48" height="48" viewBox="0 0 48 48" fill="none" xmlns="http://www.w3.org/2000/svg">
<rect width="48" height="48" rx="24" fill="#2196F3"/>
<g clip-path="url(#clip0_8077_75337)">
<path d="M28.6953 26.8203H27.7078L27.3578 26.4828C28.5828 25.0578 29.3203 23.2078 29.3203 21.1953C29.3203 16.7078 25.6828 13.0703 21.1953 13.0703C16.7078 13.0703 13.0703 16.7078 13.0703 21.1953C13.0703 25.6828 16.7078 29.3203 21.1953 29.3203C23.2078 29.3203 25.0578 28.5828 26.4828 27.3578L26.8203 27.7078V28.6953L33.0703 34.9328L34.9328 33.0703L28.6953 26.8203ZM21.1953 26.8203C18.0828 26.8203 15.5703 24.3078 15.5703 21.1953C15.5703 18.0828 18.0828 15.5703 21.1953 15.5703C24.3078 15.5703 26.8203 18.0828 26.8203 21.1953C26.8203 24.3078 24.3078 26.8203 21.1953 26.8203Z" fill="white"/>
<path d="M32.75 19L34.3125 15.5625L37.75 14L34.3125 12.4375L32.75 9L31.1875 12.4375L27.75 14L31.1875 15.5625L32.75 19Z" fill="white"/>
</g>
<defs>
<clipPath id="clip0_8077_75337">
<rect width="30" height="30" fill="white" transform="translate(9 9)"/>
</clipPath>
</defs>
</svg>
