<svg width="114" height="64" viewBox="0 0 114 64" fill="none" xmlns="http://www.w3.org/2000/svg">
<path d="M2.46 35C2.46 35.48 2.66 35.88 3.06 36.2C3.47333 36.52 3.95333 36.68 4.5 36.68C5.27333 36.68 5.96 36.3933 6.56 35.82C7.17333 35.2467 7.48 34.5733 7.48 33.8C6.90667 33.3467 6.10667 33.12 5.08 33.12C4.33333 33.12 3.70667 33.3 3.2 33.66C2.70667 34.02 2.46 34.4667 2.46 35ZM4.84 27.88C6.2 27.88 7.27333 28.2467 8.06 28.98C8.84667 29.7 9.24 30.6933 9.24 31.96V38H7.48V36.64H7.4C6.64 37.76 5.62667 38.32 4.36 38.32C3.28 38.32 2.37333 38 1.64 37.36C0.92 36.72 0.56 35.92 0.56 34.96C0.56 33.9467 0.94 33.14 1.7 32.54C2.47333 31.94 3.5 31.64 4.78 31.64C5.87333 31.64 6.77333 31.84 7.48 32.24V31.82C7.48 31.18 7.22667 30.64 6.72 30.2C6.21333 29.7467 5.62 29.52 4.94 29.52C3.91333 29.52 3.1 29.9533 2.5 30.82L0.88 29.8C1.77333 28.52 3.09333 27.88 4.84 27.88ZM16.6153 36.64C17.4953 36.64 18.2353 36.3067 18.8353 35.64C19.4353 34.9867 19.7353 34.14 19.7353 33.1C19.7353 32.0733 19.4353 31.2267 18.8353 30.56C18.2353 29.8933 17.4953 29.56 16.6153 29.56C15.722 29.56 14.9753 29.8933 14.3753 30.56C13.7886 31.2267 13.4953 32.0733 13.4953 33.1C13.4953 34.14 13.7886 34.9933 14.3753 35.66C14.9753 36.3133 15.722 36.64 16.6153 36.64ZM16.9153 38.32C16.1953 38.32 15.5353 38.1667 14.9353 37.86C14.3486 37.5533 13.8953 37.1467 13.5753 36.64H13.4953L13.5753 38V42.32H11.7353V28.2H13.4953V29.56H13.5753C13.8953 29.0533 14.3486 28.6467 14.9353 28.34C15.5353 28.0333 16.1953 27.88 16.9153 27.88C18.2086 27.88 19.302 28.3867 20.1953 29.4C21.1153 30.4267 21.5753 31.66 21.5753 33.1C21.5753 34.5533 21.1153 35.7867 20.1953 36.8C19.302 37.8133 18.2086 38.32 16.9153 38.32ZM28.3653 36.64C29.2453 36.64 29.9853 36.3067 30.5853 35.64C31.1853 34.9867 31.4853 34.14 31.4853 33.1C31.4853 32.0733 31.1853 31.2267 30.5853 30.56C29.9853 29.8933 29.2453 29.56 28.3653 29.56C27.472 29.56 26.7253 29.8933 26.1253 30.56C25.5386 31.2267 25.2453 32.0733 25.2453 33.1C25.2453 34.14 25.5386 34.9933 26.1253 35.66C26.7253 36.3133 27.472 36.64 28.3653 36.64ZM28.6653 38.32C27.9453 38.32 27.2853 38.1667 26.6853 37.86C26.0986 37.5533 25.6453 37.1467 25.3253 36.64H25.2453L25.3253 38V42.32H23.4853V28.2H25.2453V29.56H25.3253C25.6453 29.0533 26.0986 28.6467 26.6853 28.34C27.2853 28.0333 27.9453 27.88 28.6653 27.88C29.9586 27.88 31.052 28.3867 31.9453 29.4C32.8653 30.4267 33.3253 31.66 33.3253 33.1C33.3253 34.5533 32.8653 35.7867 31.9453 36.8C31.052 37.8133 29.9586 38.32 28.6653 38.32ZM42.913 35.28C42.913 36.1333 42.5396 36.8533 41.793 37.44C41.0463 38.0267 40.1063 38.32 38.973 38.32C37.9863 38.32 37.1196 38.0667 36.373 37.56C35.6263 37.04 35.093 36.36 34.773 35.52L36.413 34.82C36.653 35.4067 36.9996 35.8667 37.453 36.2C37.9196 36.52 38.4263 36.68 38.973 36.68C39.5596 36.68 40.0463 36.5533 40.433 36.3C40.833 36.0467 41.033 35.7467 41.033 35.4C41.033 34.7733 40.553 34.3133 39.593 34.02L37.913 33.6C36.0063 33.12 35.053 32.2 35.053 30.84C35.053 29.9467 35.413 29.2333 36.133 28.7C36.8663 28.1533 37.7996 27.88 38.933 27.88C39.7996 27.88 40.5796 28.0867 41.273 28.5C41.9796 28.9133 42.473 29.4667 42.753 30.16L41.113 30.84C40.9263 30.4267 40.6196 30.1067 40.193 29.88C39.7796 29.64 39.313 29.52 38.793 29.52C38.313 29.52 37.8796 29.64 37.493 29.88C37.1196 30.12 36.933 30.4133 36.933 30.76C36.933 31.32 37.4596 31.72 38.513 31.96L39.993 32.34C41.9396 32.82 42.913 33.8 42.913 35.28ZM48.7969 38.16C47.9969 38.16 47.3302 37.9133 46.7969 37.42C46.2769 36.9267 46.0102 36.24 45.9969 35.36V29.88H44.2769V28.2H45.9969V25.2H47.8369V28.2H50.2369V29.88H47.8369V34.76C47.8369 35.4133 47.9635 35.86 48.2169 36.1C48.4702 36.3267 48.7569 36.44 49.0769 36.44C49.2235 36.44 49.3635 36.4267 49.4969 36.4C49.6435 36.36 49.7769 36.3133 49.8969 36.26L50.4769 37.9C49.9969 38.0733 49.4369 38.16 48.7969 38.16ZM51.8295 33.1C51.8295 31.5933 52.3029 30.3467 53.2495 29.36C54.2095 28.3733 55.4162 27.88 56.8695 27.88C58.3229 27.88 59.5229 28.3733 60.4695 29.36C61.4295 30.3467 61.9095 31.5933 61.9095 33.1C61.9095 34.62 61.4295 35.8667 60.4695 36.84C59.5229 37.8267 58.3229 38.32 56.8695 38.32C55.4162 38.32 54.2095 37.8267 53.2495 36.84C52.3029 35.8533 51.8295 34.6067 51.8295 33.1ZM53.6695 33.1C53.6695 34.1533 53.9762 35.0067 54.5895 35.66C55.2029 36.3133 55.9629 36.64 56.8695 36.64C57.7762 36.64 58.5362 36.3133 59.1495 35.66C59.7629 35.0067 60.0695 34.1533 60.0695 33.1C60.0695 32.06 59.7629 31.2133 59.1495 30.56C58.5229 29.8933 57.7629 29.56 56.8695 29.56C55.9762 29.56 55.2162 29.8933 54.5895 30.56C53.9762 31.2133 53.6695 32.06 53.6695 33.1ZM65.7256 38H63.8856V28.2H65.6456V29.8H65.7256C65.9123 29.28 66.2923 28.84 66.8656 28.48C67.4523 28.1067 68.0256 27.92 68.5856 27.92C69.119 27.92 69.5723 28 69.9456 28.16L69.3856 29.94C69.159 29.8467 68.799 29.8 68.3056 29.8C67.6123 29.8 67.0056 30.08 66.4856 30.64C65.979 31.2 65.7256 31.8533 65.7256 32.6V38ZM75.4458 38.32C74.0058 38.32 72.8191 37.8267 71.8858 36.84C70.9524 35.8533 70.4858 34.6067 70.4858 33.1C70.4858 31.6067 70.9391 30.3667 71.8458 29.38C72.7524 28.38 73.9124 27.88 75.3258 27.88C76.7791 27.88 77.9324 28.3533 78.7858 29.3C79.6524 30.2333 80.0858 31.5467 80.0858 33.24L80.0658 33.44H72.3658C72.3924 34.4 72.7124 35.1733 73.3258 35.76C73.9391 36.3467 74.6724 36.64 75.5258 36.64C76.6991 36.64 77.6191 36.0533 78.2858 34.88L79.9258 35.68C79.4858 36.5067 78.8724 37.1533 78.0858 37.62C77.3124 38.0867 76.4324 38.32 75.4458 38.32ZM72.5058 31.92H78.1258C78.0724 31.24 77.7924 30.68 77.2858 30.24C76.7924 29.7867 76.1258 29.56 75.2858 29.56C74.5924 29.56 73.9924 29.7733 73.4858 30.2C72.9924 30.6267 72.6658 31.2 72.5058 31.92ZM87.9551 35.0801C87.9551 34.8783 87.8965 34.696 87.7793 34.5332C87.6621 34.3704 87.444 34.2207 87.125 34.084C86.8125 33.9408 86.36 33.8105 85.7676 33.6934C85.2337 33.5762 84.7357 33.4297 84.2734 33.2539C83.8177 33.0716 83.4206 32.8535 83.082 32.5996C82.75 32.3457 82.4896 32.0462 82.3008 31.7012C82.112 31.3496 82.0176 30.9492 82.0176 30.5C82.0176 30.0573 82.112 29.6406 82.3008 29.25C82.4961 28.8594 82.7728 28.5143 83.1309 28.2148C83.4954 27.9089 83.9382 27.6712 84.459 27.502C84.9863 27.3262 85.5788 27.2383 86.2363 27.2383C87.1543 27.2383 87.9421 27.3848 88.5996 27.6777C89.2637 27.9707 89.7715 28.3743 90.123 28.8887C90.4811 29.3965 90.6602 29.9759 90.6602 30.627H87.8477C87.8477 30.3535 87.7891 30.1094 87.6719 29.8945C87.5612 29.6732 87.3854 29.5007 87.1445 29.377C86.9102 29.2467 86.6042 29.1816 86.2266 29.1816C85.9141 29.1816 85.6439 29.237 85.416 29.3477C85.1882 29.4518 85.0124 29.5951 84.8887 29.7773C84.7715 29.9531 84.7129 30.1484 84.7129 30.3633C84.7129 30.526 84.7454 30.6725 84.8105 30.8027C84.8822 30.9264 84.9961 31.0404 85.1523 31.1445C85.3086 31.2487 85.5104 31.3464 85.7578 31.4375C86.0117 31.5221 86.3242 31.6003 86.6953 31.6719C87.457 31.8281 88.1374 32.0332 88.7363 32.2871C89.3353 32.5345 89.8105 32.873 90.1621 33.3027C90.5137 33.7259 90.6895 34.2826 90.6895 34.9727C90.6895 35.4414 90.5853 35.8711 90.377 36.2617C90.1686 36.6523 89.8691 36.9941 89.4785 37.2871C89.0879 37.5736 88.6191 37.7982 88.0723 37.9609C87.5319 38.1172 86.9232 38.1953 86.2461 38.1953C85.263 38.1953 84.4297 38.0195 83.7461 37.668C83.069 37.3164 82.5547 36.8704 82.2031 36.3301C81.8581 35.7832 81.6855 35.2233 81.6855 34.6504H84.3516C84.3646 35.0345 84.4622 35.3438 84.6445 35.5781C84.8333 35.8125 85.071 35.9818 85.3574 36.0859C85.6504 36.1901 85.9661 36.2422 86.3047 36.2422C86.6693 36.2422 86.972 36.1934 87.2129 36.0957C87.4538 35.9915 87.6361 35.8548 87.7598 35.6855C87.89 35.5098 87.9551 35.3079 87.9551 35.0801ZM95.8281 29.4648V42.0625H93.0156V27.4336H95.623L95.8281 29.4648ZM102.518 32.5996V32.8047C102.518 33.5729 102.426 34.2858 102.244 34.9434C102.068 35.6009 101.808 36.1738 101.463 36.6621C101.118 37.1439 100.688 37.5215 100.174 37.7949C99.666 38.0618 99.0801 38.1953 98.416 38.1953C97.7715 38.1953 97.2116 38.0651 96.7363 37.8047C96.2611 37.5443 95.8607 37.1797 95.5352 36.7109C95.2161 36.2357 94.959 35.6855 94.7637 35.0605C94.5684 34.4355 94.4186 33.765 94.3145 33.0488V32.5117C94.4186 31.7435 94.5684 31.0404 94.7637 30.4023C94.959 29.7578 95.2161 29.2012 95.5352 28.7324C95.8607 28.2572 96.2578 27.8893 96.7266 27.6289C97.2018 27.3685 97.7585 27.2383 98.3965 27.2383C99.0671 27.2383 99.6562 27.3652 100.164 27.6191C100.678 27.873 101.108 28.2376 101.453 28.7129C101.805 29.1882 102.068 29.7546 102.244 30.4121C102.426 31.0697 102.518 31.7988 102.518 32.5996ZM99.6953 32.8047V32.5996C99.6953 32.1504 99.6562 31.737 99.5781 31.3594C99.5065 30.9753 99.3893 30.64 99.2266 30.3535C99.0703 30.0671 98.862 29.8457 98.6016 29.6895C98.3477 29.5267 98.0384 29.4453 97.6738 29.4453C97.2897 29.4453 96.9609 29.5072 96.6875 29.6309C96.4206 29.7546 96.2025 29.9336 96.0332 30.168C95.8639 30.4023 95.737 30.6823 95.6523 31.0078C95.5677 31.3333 95.5156 31.7012 95.4961 32.1113V33.4688C95.5286 33.9505 95.6198 34.3835 95.7695 34.7676C95.9193 35.1452 96.1504 35.4447 96.4629 35.666C96.7754 35.8874 97.1855 35.998 97.6934 35.998C98.0645 35.998 98.377 35.9167 98.6309 35.7539C98.8848 35.5846 99.0898 35.3535 99.2461 35.0605C99.4089 34.7676 99.5228 34.429 99.5879 34.0449C99.6595 33.6608 99.6953 33.2474 99.6953 32.8047ZM107.783 36.8086L110.586 27.4336H113.604L109.355 39.5918C109.264 39.8587 109.141 40.1452 108.984 40.4512C108.835 40.7572 108.63 41.0469 108.369 41.3203C108.115 41.6003 107.793 41.8281 107.402 42.0039C107.018 42.1797 106.546 42.2676 105.986 42.2676C105.719 42.2676 105.501 42.2513 105.332 42.2188C105.163 42.1862 104.961 42.1406 104.727 42.082V40.0215C104.798 40.0215 104.873 40.0215 104.951 40.0215C105.029 40.028 105.104 40.0312 105.176 40.0312C105.547 40.0312 105.85 39.9889 106.084 39.9043C106.318 39.8197 106.507 39.6895 106.65 39.5137C106.794 39.3444 106.908 39.123 106.992 38.8496L107.783 36.8086ZM106.611 27.4336L108.906 35.0898L109.307 38.0684L107.393 38.2734L103.594 27.4336H106.611Z" fill="#2196F3"/>
</svg>
